<svg width="128" height="128" viewBox="0 0 24 24" xmlns="http://www.w3.org/2000/svg">
  <path d="M16.72 12.8c.02 2.2 1.93 2.94 1.95 2.95-.02.05-.31 1.07-1.02 2.13-.61.92-1.25 1.83-2.25 1.85-.98.02-1.3-.58-2.42-.58-1.13 0-1.48.56-2.4.6-.96.04-1.7-.97-2.31-1.88-1.25-1.82-2.2-5.16-.92-7.38.64-1.1 1.79-1.8 3.03-1.82.95-.02 1.84.64 2.42.64.58 0 1.67-.79 2.82-.67.48.02 1.84.19 2.71 1.46-.07.04-1.62.95-1.61 2.7Z" fill="#111111"/>
  <path d="M14.75 6.3c.51-.62.86-1.48.76-2.34-.73.03-1.61.49-2.13 1.1-.47.54-.88 1.41-.77 2.24.81.06 1.63-.41 2.14-1Z" fill="#111111"/>
</svg>
